<svg id="Layer_3" enable-background="new 0 0 64 64" height="512" viewBox="0 0 64 64" width="512" xmlns="http://www.w3.org/2000/svg"><g><g><path d="m31 6h5v2h-5z" fill="#f5cf88"/></g><path d="m44 54h-24l1-4h22z" fill="#c16b3f"/><path d="m13 19v10c0 3.314 2.686 6 6 6h26c3.314 0 6-2.686 6-6v-10" fill="#e39854"/><path d="m52 19h-40c-1.105 0-2-.895-2-2 0-1.105.895-2 2-2h40c1.105 0 2 .895 2 2 0 1.105-.895 2-2 2z" fill="#c16b3f"/><path d="m24 35v-4c0-1.105.895-2 2-2h12c1.105 0 2 .895 2 2v4" fill="#d5cec2"/><path d="m18 35 2 5h4l2-5" fill="#c16b3f"/><path d="m38 35 2 5h4l2-5" fill="#c16b3f"/><path d="m24 40-6 22h-4l6-22" fill="#e39854"/><path d="m40 40 6 22h4l-6-22" fill="#e39854"/><circle cx="28" cy="7" fill="#c66b60" r="4"/><path d="m38 12c-1.105 0-2-.895-2-2v-6c0-1.105.895-2 2-2 1.105 0 2 .895 2 2v6c0 1.105-.895 2-2 2z" fill="#f5cf88"/><path d="m18 12c-1.105 0-2-.895-2-2v-6c0-1.105.895-2 2-2 1.105 0 2 .895 2 2v6c0 1.105-.895 2-2 2z" fill="#78b75b"/><path d="m49 11h-4c-.552 0-1-.448-1-1v-6c0-.552.448-1 1-1h4c.552 0 1 .448 1 1v6c0 .552-.448 1-1 1z" fill="#976947"/><path d="m54 3v8l7.064-2.649c.563-.211.936-.749.936-1.351 0-.602-.373-1.14-.936-1.351z" fill="#f2c351"/><g><path d="m50 6h4v2h-4z" fill="#f5cf88"/></g><g><path d="m40 6h4v2h-4z" fill="#f5cf88"/></g><g><path d="m1 6h15v2h-15z" fill="#f5cf88"/></g><path d="m51 22h4c1.105 0 2 .895 2 2 0 1.105-.895 2-2 2h-4" fill="#c16b3f"/><path d="m13 22h-4c-1.105 0-2 .895-2 2 0 1.105.895 2 2 2h4" fill="#c16b3f"/><g><path d="m20 6h5v2h-5z" fill="#f5cf88"/></g><path d="m37.799 29h-11.799c-1.105 0-2 .895-2 2v4h9.982c1.926-1.443 3.321-3.555 3.817-6z" fill="#e7e4dd"/><path d="m54 3v5.038c.466.095.949.146 1.444.146 2.211 0 4.188-1.003 5.501-2.579z" fill="#f7d881"/><path d="m49 3h-4c-.552 0-1 .448-1 1v5.99c3.22-.107 5.799-2.744 5.799-5.99 0-.208-.011-.414-.032-.617-.183-.228-.452-.383-.767-.383z" fill="#c18e59"/><path d="m40 5.951v-1.951c0-1.105-.895-2-2-2s-2 .895-2 2v6c0 .087.015.171.026.255 1.828-.856 3.262-2.4 3.974-4.304z" fill="#fadfb2"/><path d="m31.265 4.701c-.724-1.026-1.913-1.701-3.265-1.701-2.209 0-4 1.791-4 4 0 1.536.876 2.854 2.146 3.525 2.57-.921 4.532-3.113 5.119-5.824z" fill="#e47c6e"/><path d="m20 6.147v-2.147c0-1.105-.895-2-2-2s-2 .895-2 2v5.692c1.785-.558 3.235-1.863 4-3.545z" fill="#96cc7f"/><g><path d="m61.415 4.712-7.063-2.649c-.309-.114-.652-.072-.922.114-.269.187-.43.494-.43.823v3h-2v-2c0-1.103-.897-2-2-2h-4c-1.103 0-2 .897-2 2v2h-2v-2c0-1.654-1.346-3-3-3-1.655 0-3 1.345-3 3v2h-2.102c-.464-2.28-2.484-4-4.898-4-2.415 0-4.434 1.72-4.899 4h-2.101v-2c0-1.654-1.346-3-3-3-1.655 0-3 1.345-3 3v2h-14v2h14v2c0 1.654 1.346 2.999 3 2.999s3-1.345 3-2.999v-2.001h2.102c.464 2.279 2.484 4 4.899 4s4.434-1.721 4.898-4h2.101v2.001c0 1.654 1.346 2.999 3 2.999s3-1.345 3-2.999v-2.001h2v2c0 1.103.897 2 2 2h4c1.103 0 2-.897 2-2v-2h2v3c0 .328.161.635.43.822.17.118.369.179.57.179.118 0 .237-.021.351-.064l7.064-2.648c.948-.357 1.585-1.276 1.585-2.288s-.637-1.932-1.585-2.288zm-42.415 5.288c0 .551-.448.999-1 .999h-.001c-.551 0-.999-.448-.999-.999v-6c0-.552.448-1 1-1 .551 0 1 .448 1 1zm9-.001c-1.654 0-3-1.346-3-3s1.346-3 3-3 3 1.346 3 3-1.346 3-3 3zm11 .001c0 .551-.448.999-1 .999h-.001c-.551 0-.999-.448-.999-.999v-6c0-.552.448-1 1-1 .551 0 1 .448 1 1zm6-.001v-5.999h4l.001 6h-4.001zm15.712-2.584-5.712 2.141v-5.114l5.711 2.142c.173.065.289.232.289.416 0 .183-.116.35-.288.415z"/><path d="m55 21h-3v-1c1.654 0 3-1.346 3-3s-1.346-3-3-3h-40c-1.654 0-3 1.346-3 3s1.346 2.999 3 2.999v1h-3c-.802 0-1.555.312-2.122.878-.567.568-.878 1.322-.878 2.123 0 1.654 1.345 3 3 3h3v2c0 3.246 2.225 5.975 5.229 6.763l1.719 4.297-5.912 21.676c-.082.301-.02.622.17.87.189.248.483.393.795.393h4c.451 0 .846-.302.964-.736l1.981-7.264h22.109l1.981 7.265c.118.433.513.736.964.736h4c.312 0 .606-.146.795-.394s.252-.569.17-.87l-5.912-21.677 1.719-4.297c3.003-.788 5.228-3.516 5.228-6.762v-2h3c1.654 0 2.999-1.346 2.999-3 0-1.655-1.345-3-2.999-3zm-44-4c0-.552.448-1 1-1h40c.551 0 1 .449 1 1s-.449.999-1 .999h-40c-.552 0-1-.448-1-.999zm-2 8c-.551 0-1-.449-1-1.001 0-.267.104-.518.292-.707.189-.188.44-.292.708-.292h3v2zm16 6c0-.552.449-1 1-1h12c.551 0 1 .448 1 1v2.999h-14zm15.677 7.998-1.2-3h5.046l-1.2 3zm-15.728 1.32 1.728-4.32h10.645l1.729 4.32 2.367 8.68h-18.837zm-.426-4.32-1.2 3h-2.646l-1.2-3zm-7.287 25h-1.927l5.454-20h1.927zm4.255-7.999.546-2.001h19.927l.546 2.001zm25.273 8.001-5.455-20.002h1.927l5.454 20.002zm-1.765-27.002h-3.999v-2.998c0-1.654-1.346-3-3-3h-12c-1.655 0-3 1.346-3 3v2.999h-4c-2.757 0-5-2.242-5-4.999v-9h36l-.001 9c0 2.756-2.243 4.998-5 4.998zm10.001-8.999h-3.001v-2h3c.551 0 .999.449.999 1 .001.552-.447 1-.998 1z"/></g></g></svg>