<svg id="Capa_1" enable-background="new 0 0 512 512" height="512" viewBox="0 0 512 512" width="512" xmlns="http://www.w3.org/2000/svg"><g><g><path d="m375.799 405.752h-239.599c-57.791 0-104.822-47.034-104.822-104.832 0-57.787 47.031-104.815 104.822-104.815h239.599c57.791 0 104.817 47.028 104.817 104.815 0 57.798-47.026 104.832-104.817 104.832z" fill="#e64545"/></g><path d="m375.799 196.105h-119.799v209.647h119.799c57.791 0 104.817-47.034 104.817-104.832 0-57.787-47.026-104.815-104.817-104.815z" fill="#cc2929"/><g><path d="m405.748 495.592h-299.497c-57.794 0-105.822-47.021-105.822-104.818 0-8.27 6.698-14.977 14.975-14.977h481.188c8.283 0 14.979 6.707 14.979 14.977-.001 57.797-48.032 104.818-105.823 104.818z" fill="#fb3"/></g><path d="m496.592 375.797h-240.592v119.795h149.749c57.791 0 105.822-47.021 105.822-104.818-.001-8.27-6.696-14.977-14.979-14.977z" fill="#e68a2e"/><g><path d="m496.592 226.054h-481.189c-8.277 0-14.975-6.701-14.975-14.978.001-107.338 115.199-194.671 255.572-194.671 140.369 0 255.571 87.333 255.571 194.672-.001 8.276-6.696 14.977-14.979 14.977z" fill="#fb3"/></g><path d="m496.592 226.054c8.283 0 14.979-6.701 14.979-14.978-.001-107.338-115.203-194.671-255.571-194.671v209.649z" fill="#e68a2e"/><g id="Burger_3_"><g><path d="m415.731 330.875c-24.955 0-38.239-9.963-48.911-17.97-9.287-6.943-15.989-11.985-30.961-11.985-14.97 0-21.672 5.042-30.945 11.985-10.673 8.007-23.951 17.97-48.915 17.97s-38.242-9.963-48.917-17.97c-9.271-6.943-15.969-11.985-30.943-11.985s-21.672 5.042-30.96 11.985c-10.675 8.007-23.953 17.97-48.914 17.97-24.951 0-38.242-9.963-48.904-17.97-9.284-6.943-15.982-11.985-30.957-11.985-8.28 0-14.974-6.694-14.974-14.965 0-8.282 6.694-14.977 14.974-14.977 24.961 0 38.242 9.963 48.914 17.97 9.274 6.944 15.969 11.972 30.947 11.972 14.974 0 21.672-5.027 30.957-11.972 10.675-8.007 23.953-17.97 48.917-17.97 24.948 0 38.242 9.963 48.901 17.97 9.288 6.944 15.986 11.972 30.96 11.972 14.975 0 21.675-5.027 30.956-11.972 10.66-8.007 23.958-17.97 48.904-17.97 24.962 0 38.246 9.963 48.918 17.97 9.28 6.944 15.982 11.972 30.954 11.972 14.977 0 21.672-5.027 30.952-11.972 10.673-8.007 23.951-17.97 48.911-17.97 8.283 0 14.979 6.694 14.979 14.977 0 8.271-6.695 14.965-14.979 14.965-14.979 0-21.672 5.042-30.954 11.985-10.665 8.007-23.956 17.97-48.91 17.97z" fill="#97de3d"/></g><g><path d="m95.665 161.765c-5.852-5.848-5.852-15.326 0-21.174l29.949-29.949c5.848-5.848 15.326-5.848 21.174 0 5.851 5.848 5.851 15.326 0 21.174l-29.949 29.949c-5.849 5.849-15.326 5.849-21.174 0z" fill="#ffe14d"/></g><g><path d="m185.511 161.765c-5.848-5.848-5.848-15.326 0-21.174l29.949-29.949c5.851-5.848 15.329-5.848 21.177 0s5.848 15.326 0 21.174l-29.949 29.949c-5.851 5.849-15.325 5.849-21.177 0z" fill="#ffe14d"/></g><g><path d="m275.364 161.765c-5.854-5.848-5.854-15.326 0-21.174l29.943-29.949c5.854-5.848 15.332-5.848 21.181 0 5.848 5.848 5.848 15.326 0 21.174l-29.95 29.949c-5.854 5.849-15.331 5.849-21.174 0z" fill="#fb3"/></g><g><path d="m356.89 161.765c-5.849-5.848-5.849-15.326 0-21.174l29.949-29.949c5.848-5.848 15.325-5.848 21.173 0 5.854 5.848 5.854 15.326 0 21.174l-29.948 29.949c-5.848 5.849-15.327 5.849-21.174 0z" fill="#fb3"/></g></g><g><path d="m304.914 312.905c9.273-6.943 15.976-11.985 30.945-11.985 14.972 0 21.674 5.042 30.961 11.985 10.672 8.007 23.956 17.97 48.911 17.97 24.953 0 38.244-9.963 48.909-17.97 9.282-6.943 15.976-11.985 30.954-11.985 8.283 0 14.979-6.694 14.979-14.965 0-8.282-6.695-14.977-14.979-14.977-24.96 0-38.238 9.963-48.911 17.97-9.28 6.944-15.976 11.972-30.952 11.972-14.972 0-21.674-5.027-30.954-11.972-10.672-8.007-23.956-17.97-48.918-17.97-24.946 0-38.244 9.963-48.904 17.97-9.28 6.944-15.98 11.972-30.956 11.972v29.955c24.964 0 38.242-9.963 48.915-17.97z" fill="#59c36a"/></g></g></svg>