<svg id="boil" enable-background="new 0 0 300 300" height="512" viewBox="0 0 300 300" width="512" xmlns="http://www.w3.org/2000/svg"><g><circle cx="170" cy="120" fill="#edebdc" r="86"/><g fill="#4c241d"><path d="m64 66c-2.209 0-4-1.791-4-4v-8c0-2.209 1.791-4 4-4s4 1.791 4 4v8c0 2.209-1.791 4-4 4z"/><path d="m64 90c-2.209 0-4-1.791-4-4v-8c0-2.209 1.791-4 4-4s4 1.791 4 4v8c0 2.209-1.791 4-4 4z"/><path d="m56 74h-8c-2.209 0-4-1.791-4-4s1.791-4 4-4h8c2.209 0 4 1.791 4 4s-1.791 4-4 4z"/><path d="m80 74h-8c-2.209 0-4-1.791-4-4s1.791-4 4-4h8c2.209 0 4 1.791 4 4s-1.791 4-4 4z"/><path d="m92.605 40.391c0 2.362-1.914 4.277-4.276 4.277s-4.276-1.915-4.276-4.277 1.914-4.276 4.276-4.276 4.276 1.915 4.276 4.276z"/><path d="m100.605 84.391c0 2.362-1.914 4.277-4.276 4.277s-4.276-1.915-4.276-4.277 1.914-4.276 4.276-4.276 4.276 1.915 4.276 4.276z"/><path d="m200.586 80.684c-6.801 0-12.336-5.535-12.336-12.34 0-6.803 5.535-12.338 12.336-12.338 6.805 0 12.34 5.535 12.34 12.338 0 6.804-5.535 12.34-12.34 12.34zm0-16.678c-2.391 0-4.336 1.945-4.336 4.338s1.945 4.34 4.336 4.34c2.395 0 4.34-1.947 4.34-4.34s-1.946-4.338-4.34-4.338z"/></g><g><path d="m183.892 250h-83.783c-11.106 0-20.109-9.003-20.109-20.108v-95.892h124v95.892c0 11.105-9.003 20.108-20.108 20.108z" fill="#eaeaea"/><path d="m183.891 254h-83.783c-13.294 0-24.108-10.816-24.108-24.109v-95.891c0-2.209 1.791-4 4-4h124c2.211 0 4 1.791 4 4v95.891c0 13.293-10.816 24.109-24.109 24.109zm-99.891-116v91.891c0 8.882 7.227 16.109 16.107 16.109h83.783c8.883 0 16.109-7.227 16.109-16.109v-91.891z" fill="#4c241d"/></g><g><path d="m204 134h-124v-8.72c0-8.439 6.841-15.28 15.28-15.28h93.439c8.439 0 15.28 6.841 15.28 15.28v8.72z" fill="#fff"/><path d="m204 138h-124c-2.209 0-4-1.791-4-4v-8.719c0-10.631 8.65-19.281 19.281-19.281h93.438c10.633 0 19.281 8.65 19.281 19.281v8.719c0 2.209-1.789 4-4 4zm-120-8h116v-4.719c0-6.221-5.062-11.281-11.281-11.281h-93.438c-6.22 0-11.281 5.061-11.281 11.281z" fill="#4c241d"/></g><g><path d="m236 146-32 4v-16h32z" fill="#6b4f5b"/><path d="m204 154c-.969 0-1.914-.352-2.648-1.002-.86-.758-1.352-1.852-1.352-2.998v-16c0-2.209 1.789-4 4-4h32c2.211 0 4 1.791 4 4v12c0 2.018-1.504 3.719-3.504 3.969l-32 4c-.164.021-.332.031-.496.031zm32-8h.039zm-28-8v7.469l24-3v-4.469z" fill="#4c241d"/></g><g><path d="m80 150-32-4v-12h32z" fill="#6b4f5b"/><path d="m80 154c-.164 0-.33-.01-.496-.031l-32-4c-2.002-.25-3.504-1.951-3.504-3.969v-12c0-2.209 1.791-4 4-4h32c2.209 0 4 1.791 4 4v16c0 1.146-.492 2.24-1.354 2.998-.734.65-1.677 1.002-2.646 1.002zm-28-11.531 24 3v-7.469h-24z" fill="#4c241d"/></g><g><path d="m166.999 228.166c0 10.265-10.2 18.586-22.783 18.586s-22.783-8.321-22.783-18.586c0-4.392 1.867-8.428 4.989-11.608 1.576-1.606 2.706-3.647 2.833-5.893.137-2.415-.626-5.281-4.225-7.081 0 0 2.398-8.394 11.991-2.398 0 0-.191-.344-.444-.957-3.584-8.698 2.99-18.229 12.396-18.229h4.835s-10.827 7.237-3.598 13.19c20.386 16.788 16.789 32.976 16.789 32.976z" fill="#ffce56"/><path d="m144.215 250.752c-14.77 0-26.783-10.133-26.783-22.586 0-5.264 2.18-10.381 6.137-14.41.596-.607 1.609-1.85 1.691-3.314.09-1.59-.477-2.508-2.018-3.279-1.723-.861-2.588-2.826-2.059-4.678.146-.512 1.562-5.061 6.133-6.816 1.348-.52 2.758-.723 4.281-.625.043-3.26 1.027-6.496 2.91-9.307 3.242-4.844 8.648-7.736 14.465-7.736h4.836c1.762 0 3.316 1.152 3.828 2.838.512 1.688-.141 3.51-1.605 4.488-1.707 1.158-4.234 3.693-4.309 5.232-.008.164-.031.67 1.031 1.543 20.289 16.709 18.746 33.326 18.242 36.439-.237 12.281-12.159 22.211-26.78 22.211zm-13.453-47.725c1.793 2.115 2.66 4.797 2.484 7.863-.168 3.064-1.543 5.994-3.969 8.469-2.516 2.562-3.846 5.607-3.846 8.807 0 8.043 8.428 14.586 18.783 14.586 10.359 0 18.785-6.543 18.785-14.586 0-.279.027-.559.086-.832.129-.643 2.547-14.262-15.418-29.057-3.445-2.836-4.039-5.982-3.934-8.123.051-1.025.27-2.006.602-2.932-1.254.715-2.348 1.719-3.18 2.963-1.727 2.58-2.047 5.684-.879 8.518.125.314.223.508.254.57.852 1.598.531 3.586-.793 4.82s-3.293 1.449-4.84.484c-1.655-1.036-3.096-1.518-4.135-1.55z" fill="#4c241d"/></g><g><path d="m131.151 234.284c-.104.85-.166 1.71-.082 2.562.55 5.546 6.226 9.907 13.146 9.907 7.285 0 11.991-4.796 13.19-10.792s-1.199-17.987-13.19-26.381c0 0 4.499 10.534-4.796 13.19-6.327 1.808-7.885 8.384-8.268 11.514z" fill="#fc8c29"/><path d="m144.215 250.752c-8.996 0-16.359-5.809-17.125-13.512-.133-1.316-.02-2.535.094-3.449.941-7.695 5-13.113 11.133-14.867 1.781-.508 2.332-1.285 2.594-1.824.918-1.9.008-5.023-.383-5.969-.68-1.643-.199-3.547 1.188-4.66 1.391-1.113 3.336-1.186 4.793-.168 12.602 8.82 16.516 21.963 14.82 30.443-1.677 8.377-8.556 14.006-17.114 14.006zm4.445-31.529c-.145.438-.316.871-.52 1.301-.984 2.066-3.105 4.801-7.625 6.092-3.961 1.135-5.078 5.596-5.395 8.154v.006c-.062.498-.125 1.137-.07 1.668.352 3.541 4.375 6.309 9.164 6.309 5.715 0 8.535-3.914 9.27-7.576.52-2.609.243-9.343-4.824-15.954zm-17.508 15.06h.039z" fill="#4c241d"/></g><g><path d="m104 250h80v12h-80z" fill="#6b4f5b"/><path d="m184 266h-80c-2.209 0-4-1.791-4-4v-12c0-2.209 1.791-4 4-4h80c2.211 0 4 1.791 4 4v12c0 2.209-1.789 4-4 4zm-76-8h72v-4h-72z" fill="#4c241d"/></g><path d="m236 266h-184c-2.209 0-4-1.791-4-4s1.791-4 4-4h184c2.211 0 4 1.791 4 4s-1.789 4-4 4z" fill="#4c241d"/><path d="m172 114h-60c-2.209 0-4-1.791-4-4v-17.035c0-8.252 6.713-14.965 14.965-14.965h38.07c8.25 0 14.965 6.713 14.965 14.965v17.035c0 2.209-1.789 4-4 4zm-56-8h52v-13.035c0-3.84-3.125-6.965-6.965-6.965h-38.07c-3.84 0-6.965 3.125-6.965 6.965z" fill="#4c241d"/></g></svg>