<svg id="Capa_1" enable-background="new 0 0 512 512" height="512" viewBox="0 0 512 512" width="512" xmlns="http://www.w3.org/2000/svg"><g><g><path clip-rule="evenodd" d="m235.11 374.5h33.362v95.254h-33.362z" fill="#bed8fb" fill-rule="evenodd"/></g><g><path clip-rule="evenodd" d="m341.375 124.64c.737-48.67-36.055-88.666-85.375-88.666-47.194 0-85.46 38.238-85.46 85.434 0 1.077.028 2.154.085 3.231 34.893-4.082 66.837 40.449 83.504 71.516 16.695-31.038 52.382-75.626 87.246-71.515z" fill="#a6e0fa" fill-rule="evenodd"/></g><g><path clip-rule="evenodd" d="m256 169.114c14.428-26.815 42.744-45.07 75.312-45.07 3.401 0 6.774.227 10.062.595 9.269 1.105 18.056 3.657 26.162 7.455 1.162.539 2.296 1.105 3.43 1.701 27.239 14.286 45.805 42.83 45.805 75.711 0 6.888-.822 13.578-2.353 19.984 0 0-59.037 14.278-75.029 14.278-18.932 0-75.624-14.278-75.624-14.278-11.976 0-17.744-15.863-17.744-22.751.002-14.598.002-24.633 9.979-37.625z" fill="#fe8d94" fill-rule="evenodd"/></g><g><path clip-rule="evenodd" d="m95.228 209.507c0-43.794 32.937-79.878 75.397-84.867 3.288-.368 6.661-.595 10.062-.595 32.568 0 60.913 18.255 75.312 45.07 6.463 12.047 10.119 25.795 10.119 40.393 0 6.888-.794 13.578-2.353 19.984l-90.09 19.19-76.095-19.192c-1.53-6.406-2.352-13.095-2.352-19.983z" fill="#fde588" fill-rule="evenodd"/></g><g><path clip-rule="evenodd" d="m417.935 64.717-27.665-6.378-31.094 12.614-20.466 30.103-.907 2.012 1.588.993 25.794 6.831 30.017-12.727z" fill="#fe8d94" fill-rule="evenodd"/></g><g><path clip-rule="evenodd" d="m395.202 98.165-55.811 5.896c-3.118 7.908-2.041 14.711 1.984 20.579 7.256 9.127 18.084 10.233 29.592 9.156z" fill="#fde588" fill-rule="evenodd"/></g><g><path clip-rule="evenodd" d="m401.098 9.273-19.19 28.232 24.688 11.48 32.398-17.518c-.227-.964-.794-1.842-1.672-2.438l-30.612-20.833c-1.843-1.248-4.365-.766-5.612 1.077z" fill="#fe8d94" fill-rule="evenodd"/></g><g><path clip-rule="evenodd" d="m438.995 31.467-57.087 6.038-22.733 33.448 58.759-6.236 20.466-30.075c.651-.964.821-2.098.595-3.175z" fill="#fde588" fill-rule="evenodd"/></g><g><path clip-rule="evenodd" d="m341.375 124.64c.737-48.67-36.055-88.666-85.375-88.666-28.146 0-53.09 13.578-68.68 34.582 14.172-10.431 31.661-16.582 50.596-16.582 43.028 0 76.531 30.5 83.873 70.609 3.146-.34 6.321-.539 9.524-.539 3.401 0 6.774.227 10.062.596z" fill="#75cef9" fill-rule="evenodd"/></g><g><path clip-rule="evenodd" d="m76.208 267.87v62.105c0 34.157 27.948 62.105 62.104 62.105h96.798 33.362 96.826c34.127 0 62.075-27.949 62.075-62.105v-62.105l-161.254-19.19z" fill="#eff6ff" fill-rule="evenodd"/></g><g><path clip-rule="evenodd" d="m76.208 229.49c-5.187 0-9.439 4.252-9.439 9.439v19.502c0 5.187 4.252 9.439 9.439 9.439h246.232 52.92 52.013 8.418c5.215 0 9.439-4.252 9.439-9.439v-19.502c0-5.187-4.223-9.439-9.439-9.439h-21.371-32.171-118.482-42.036-124.151z" fill="#bed8fb" fill-rule="evenodd"/></g><g><path clip-rule="evenodd" d="m268.472 452.174h-33.362-48.186c-14.371 0-26.134 11.792-26.134 26.163v22.053c0 2.268 1.842 4.11 4.082 4.11h173.838c2.268 0 4.11-1.842 4.11-4.11v-22.053c0-14.371-11.791-26.163-26.162-26.163z" fill="#eff6ff" fill-rule="evenodd"/></g><g><path clip-rule="evenodd" d="m256 169.114c-14.399-26.815-42.744-45.07-75.312-45.07-3.401 0-6.774.227-10.062.595-3.742.454-7.398 1.134-10.969 2.013 23.498 5.953 43.113 21.628 54.309 42.462 6.463 12.047 10.147 25.795 10.147 40.393 0 6.888-.822 13.578-2.381 19.984h42.036c1.559-6.406 2.353-13.096 2.353-19.984-.002-14.598-3.658-28.346-10.121-40.393z" fill="#fdd76f" fill-rule="evenodd"/></g><g><path clip-rule="evenodd" d="m416.772 209.507c0-32.881-18.566-61.425-45.805-75.711-9.014-4.734-19.019-7.908-29.592-9.156-3.288-.368-6.661-.595-10.062-.595-9.609 0-18.878 1.616-27.523 4.535-3.628 1.247-7.171 2.721-10.573 4.422 1.446-.057 2.863-.113 4.308-.113 32.597 0 60.913 18.255 75.341 45.07 6.463 12.019 10.119 25.795 10.119 40.393 0 3.77-.255 7.512-.737 11.14h32.171c1.531-6.408 2.353-13.097 2.353-19.985z" fill="#ff6d75" fill-rule="evenodd"/></g><g><path clip-rule="evenodd" d="m316.658 452.174h-38.436c14.399 0 26.162 11.792 26.162 26.163v22.053c0 2.268-1.842 4.11-4.11 4.11h38.436c2.268 0 4.11-1.842 4.11-4.11v-22.053c0-14.371-11.791-26.163-26.162-26.163z" fill="#d9eeff" fill-rule="evenodd"/></g><g fill="#d9eeff"><path clip-rule="evenodd" d="m388.853 329.976c0 34.157-27.948 62.105-62.104 62.105h38.549c34.127 0 62.075-27.949 62.075-62.105v-62.106h-38.521v62.106z" fill-rule="evenodd"/><path d="m365.298 399.581h-38.55v-15c30.109 0 54.604-24.496 54.604-54.605v-69.606h53.52v69.605c.001 38.381-31.21 69.606-69.574 69.606zm31.055-124.211v54.605c0 21.987-10.249 41.628-26.219 54.392 27.836-2.456 49.739-25.913 49.739-54.392v-54.605z"/></g><g><path clip-rule="evenodd" d="m388.938 229.49c5.159.057 9.354 4.28 9.354 9.439v19.502c0 5.187-4.252 9.439-9.439 9.439h38.521 8.418c5.215 0 9.439-4.252 9.439-9.439v-19.502c0-5.187-4.223-9.439-9.439-9.439h-21.372z" fill="#9dc6fb" fill-rule="evenodd"/></g><g><path d="m199.424 291.494c-4.142 0-7.5 3.357-7.5 7.5v53.63c0 4.143 3.358 7.5 7.5 7.5s7.5-3.357 7.5-7.5v-53.63c0-4.142-3.358-7.5-7.5-7.5z"/><path d="m147.042 291.494c-4.142 0-7.5 3.357-7.5 7.5v53.63c0 4.143 3.358 7.5 7.5 7.5s7.5-3.357 7.5-7.5v-53.63c0-4.142-3.358-7.5-7.5-7.5z"/><path d="m251.805 291.494c-4.142 0-7.5 3.357-7.5 7.5v53.63c0 4.143 3.358 7.5 7.5 7.5s7.499-3.357 7.499-7.5v-53.63c.001-4.142-3.357-7.5-7.499-7.5z"/><path d="m304.186 360.124c4.143 0 7.5-3.357 7.5-7.5v-53.63c0-4.143-3.357-7.5-7.5-7.5s-7.5 3.357-7.5 7.5v53.63c0 4.142 3.358 7.5 7.5 7.5z"/><path d="m356.568 360.124c4.143 0 7.5-3.357 7.5-7.5v-53.63c0-4.143-3.357-7.5-7.5-7.5s-7.5 3.357-7.5 7.5v53.63c0 4.142 3.357 7.5 7.5 7.5z"/><path d="m177.7 185.583c0-4.143-3.358-7.5-7.5-7.5s-7.5 3.357-7.5 7.5v.028c0 4.143 3.358 7.486 7.5 7.486s7.5-3.372 7.5-7.514z"/><path d="m161.402 166.194c0-4.143-3.358-7.5-7.5-7.5s-7.5 3.357-7.5 7.5v.028c0 4.143 3.358 7.486 7.5 7.486 4.142.001 7.5-3.371 7.5-7.514z"/><path d="m145.075 185.583c0-4.143-3.358-7.5-7.5-7.5s-7.5 3.357-7.5 7.5v.028c0 4.143 3.358 7.486 7.5 7.486s7.5-3.372 7.5-7.514z"/><path d="m246.023 82.586c-4.142 0-7.5 3.357-7.5 7.5v.028c0 4.143 3.358 7.485 7.5 7.485s7.5-3.371 7.5-7.514c-.001-4.142-3.358-7.499-7.5-7.499z"/><path d="m229.696 63.197c-4.142 0-7.5 3.357-7.5 7.5v.028c0 4.143 3.358 7.485 7.5 7.485s7.5-3.371 7.5-7.514c0-4.141-3.358-7.499-7.5-7.499z"/><path d="m213.398 82.586c-4.142 0-7.5 3.357-7.5 7.5v.028c0 4.143 3.358 7.485 7.5 7.485s7.5-3.371 7.5-7.514c0-4.142-3.358-7.499-7.5-7.499z"/><path d="m435.792 221.991h-12.366c.557-4.136.847-8.309.847-12.484 0-32.715-16.989-61.535-42.605-78.108l19.757-29.051c.017-.025.034-.049.051-.074l43.135-63.428c1.725-2.548 2.355-5.617 1.775-8.644-.581-3.034-2.308-5.655-4.844-7.372l-30.629-20.845c-2.547-1.724-5.617-2.354-8.643-1.775-3.034.581-5.655 2.308-7.375 4.848l-41.663 61.294c-.188.241-.358.495-.515.757l-11.714 17.233c-4.566-10.602-11.045-20.304-19.277-28.661-17.28-17.545-40.623-27.207-65.726-27.207-50.19 0-91.21 39.971-92.899 89.742-16.888 3.238-32.606 11.113-45.439 22.966-3.043 2.811-3.231 7.556-.42 10.599s7.556 3.231 10.598.421c14.422-13.322 33.19-20.658 52.848-20.658 42.971 0 77.932 34.973 77.932 77.963 0 4.236-.339 8.413-.994 12.484h-153.89c-.663-4.124-1.007-8.302-1.007-12.484 0-11.347 2.381-22.269 7.079-32.464 1.733-3.763.088-8.217-3.674-9.95-3.761-1.735-8.217-.089-9.95 3.673-5.61 12.177-8.455 25.212-8.455 38.741 0 4.176.29 8.349.847 12.484h-12.368c-9.34 0-16.939 7.599-16.939 16.938v19.502c0 6.646 3.856 12.393 9.439 15.166v56.379c0 38.381 31.224 69.605 69.604 69.605h89.298v45.094h-40.686c-18.546 0-33.634 15.101-33.634 33.663v22.053c0 6.402 5.195 11.61 11.581 11.61h173.839c6.402 0 11.61-5.208 11.61-11.61v-22.053c0-18.561-15.102-33.663-33.663-33.663h-40.686v-45.094h89.327c38.364 0 69.575-31.224 69.575-69.605v-54.606h.919c9.34 0 16.938-7.599 16.938-16.939v-19.502c0-9.34-7.598-16.938-16.938-16.938zm-30.434-205.644 14.162 9.639-22.318 2.361zm-19.203 28.25 39.225-4.149-11.681 17.176-39.227 4.161zm-22.733 33.445 39.221-4.161-11.691 17.191-39.202 4.142zm16.478 29.281-11.521 16.94c-6.219-2.715-12.79-4.768-19.625-6.071-.124-2.525-.334-5.031-.641-7.511zm29.373 102.183c0 4.181-.343 8.359-1.007 12.484h-135.483c.549-4.099.836-8.271.836-12.484 0-14.368-3.277-27.984-9.12-40.143 14.098-23.419 39.353-37.82 66.813-37.82 42.988.001 77.961 34.974 77.961 77.963zm-153.301-54.435c-16.901-23.325-44.349-38.527-75.284-38.527-.831 0-1.657.036-2.485.058 2.493-40.742 36.426-73.128 77.797-73.128 21.055 0 40.601 8.073 55.04 22.732 13.257 13.459 21.121 31.116 22.588 50.367-.77-.019-1.542-.029-2.316-.029-30.101 0-57.98 14.502-75.34 38.527zm79.349 323.266v18.663h-167.032v-18.663c0-10.291 8.359-18.663 18.634-18.663h129.734c10.292 0 18.664 8.372 18.664 18.663zm-74.349-33.663h-18.362v-45.094h18.362zm176.759-186.243c0 1.051-.888 1.939-1.938 1.939h-169.787c-4.143 0-7.5 3.357-7.5 7.5s3.357 7.5 7.5 7.5h153.867v54.605c0 30.109-24.482 54.605-54.575 54.605h-226.986c-30.109 0-54.604-24.496-54.604-54.605v-54.605h147.66c4.142 0 7.5-3.357 7.5-7.5s-3.358-7.5-7.5-7.5h-155.16c-1.051 0-1.939-.889-1.939-1.939v-19.502c0-1.051.888-1.938 1.939-1.938h187.532c.011 0 .022.002.033.002.008 0 .015-.002.023-.002h171.997c1.051 0 1.938.888 1.938 1.938z"/><path d="m323.381 185.583v.028c0 4.143 3.357 7.486 7.5 7.486s7.5-3.372 7.5-7.515-3.357-7.5-7.5-7.5-7.5 3.358-7.5 7.501z"/><path d="m314.582 158.694c-4.143 0-7.5 3.357-7.5 7.5v.028c0 4.143 3.357 7.486 7.5 7.486s7.5-3.372 7.5-7.515c0-4.142-3.358-7.499-7.5-7.499z"/><path d="m298.256 178.083c-4.143 0-7.5 3.357-7.5 7.5v.028c0 4.143 3.357 7.486 7.5 7.486s7.5-3.372 7.5-7.515c0-4.142-3.358-7.499-7.5-7.499z"/></g></g></svg>