<?xml version="1.0" standalone="no"?>
<!DOCTYPE svg PUBLIC "-//W3C//DTD SVG 20010904//EN"
 "http://www.w3.org/TR/2001/REC-SVG-20010904/DTD/svg10.dtd">
<svg version="1.0" xmlns="http://www.w3.org/2000/svg"
 width="2400.000000pt" height="2267.000000pt" viewBox="0 0 2400.000000 2267.000000"
 preserveAspectRatio="xMidYMid meet">

<g transform="translate(0.000000,2267.000000) scale(0.100000,-0.100000)"
fill="#000000" stroke="none">
<path d="M12615 21490 c-578 -18 -898 -60 -1692 -224 -1167 -242 -1246 -259
-1658 -377 -447 -128 -789 -243 -1180 -394 -159 -62 -321 -123 -360 -135 -302
-99 -1092 -484 -1690 -823 -162 -93 -725 -462 -980 -644 -322 -230 -635 -503
-1031 -898 -383 -382 -614 -645 -894 -1020 -683 -913 -1157 -1897 -1440 -2990
-168 -649 -210 -1092 -196 -2085 8 -630 26 -879 81 -1108 42 -175 105 -291
220 -406 197 -197 344 -142 411 154 9 43 18 174 24 380 22 706 88 1267 225
1925 235 1120 599 2052 1133 2905 739 1179 1762 2149 2982 2827 164 91 660
341 813 409 342 153 667 260 1208 398 234 60 356 79 433 66 60 -9 92 -40 75
-72 -30 -55 -388 -236 -999 -503 -1648 -721 -2102 -1014 -3010 -1941 -985
-1005 -1576 -2001 -1981 -3334 -150 -494 -214 -864 -261 -1525 -17 -239 -17
-1756 0 -2210 47 -1250 101 -1690 272 -2205 194 -587 660 -1541 909 -1860 312
-401 1090 -1180 1541 -1545 128 -104 636 -462 920 -650 624 -412 1249 -731
1760 -899 368 -120 1304 -324 1634 -355 119 -12 176 -31 210 -72 35 -41 41
-81 20 -125 -35 -74 -144 -98 -434 -98 -246 1 -347 13 -722 90 -907 184 -1635
422 -2388 780 -590 280 -1115 635 -1675 1133 -534 476 -924 904 -1480 1626
-381 494 -567 691 -685 725 -51 15 -90 1 -142 -51 -38 -38 -51 -61 -69 -119
-31 -105 -23 -304 19 -475 133 -528 491 -1172 955 -1716 583 -683 1461 -1430
2102 -1787 148 -82 506 -256 685 -332 1556 -662 3322 -896 5095 -674 1151 144
2244 432 3275 864 524 220 1084 497 1400 693 147 91 700 460 865 577 214 152
477 391 925 840 504 503 643 666 1005 1170 922 1287 1492 2517 1749 3775 115
563 140 865 140 1660 -1 786 -39 1494 -120 2205 -43 382 -77 597 -155 976
-175 858 -361 1374 -723 2003 -197 342 -448 728 -580 893 -214 266 -705 749
-1061 1044 -1014 840 -2292 1524 -3200 1713 -55 12 -257 43 -450 71 -720 103
-834 133 -933 245 -81 93 -94 165 -39 220 88 88 304 96 807 29 921 -122 1675
-389 2695 -952 1301 -718 2272 -1492 2857 -2275 443 -594 867 -1471 1143
-2367 277 -899 428 -1731 466 -2570 13 -302 7 -1415 -10 -1725 -44 -780 -72
-1031 -166 -1462 -240 -1108 -426 -1666 -815 -2458 -454 -922 -966 -1633
-1701 -2362 -624 -618 -1358 -1186 -2329 -1803 -256 -163 -312 -203 -392 -278
-102 -96 -135 -179 -107 -262 22 -61 97 -72 299 -46 535 72 1226 442 2230
1196 258 193 592 471 810 674 254 236 834 804 1049 1026 422 437 533 565 754
862 723 970 1114 1795 1397 2944 315 1278 426 2716 335 4374 -30 543 -36 587
-141 1080 -105 492 -148 671 -229 949 -384 1330 -1082 2683 -1894 3675 -353
431 -751 827 -1161 1155 -1064 852 -2367 1410 -4094 1756 -353 70 -570 92
-1166 115 -370 14 -1193 20 -1495 10z m1599 -4021 c116 -32 192 -201 260 -579
40 -220 110 -496 174 -684 l58 -169 274 -93 c1741 -586 1887 -641 2580 -974
515 -247 695 -363 756 -486 29 -59 27 -183 -5 -248 -34 -68 -117 -148 -196
-187 l-66 -32 -502 2 c-899 4 -2485 -41 -3687 -104 -1281 -67 -2107 -136
-2780 -230 -173 -24 -580 -78 -905 -120 -623 -80 -876 -114 -2215 -300 -1266
-175 -1511 -210 -1847 -265 -541 -87 -555 -87 -714 21 -31 21 -59 46 -63 55
-4 9 1 42 10 72 26 90 142 194 434 389 439 292 992 603 1710 962 428 213 582
284 1085 501 182 78 376 164 431 191 101 48 103 49 171 141 96 129 195 271
451 651 298 441 465 662 539 715 20 14 156 46 478 111 639 130 1038 210 1435
286 190 36 559 113 820 170 783 171 1014 213 1180 214 52 1 112 -4 134 -10z
m-3243 -4189 c33 -18 52 -68 46 -125 -8 -76 -51 -162 -179 -356 -63 -96 -144
-219 -180 -274 -186 -282 -455 -549 -590 -585 -95 -26 -229 53 -289 170 -46
90 -25 234 55 386 138 261 396 490 757 674 206 105 325 139 380 110z m6165
-791 c18 -11 43 -37 56 -57 21 -33 23 -49 22 -157 0 -136 -11 -186 -99 -449
-80 -239 -80 -257 -9 -336 50 -55 119 -89 205 -99 144 -19 289 -126 289 -215
0 -80 -309 -230 -548 -267 -136 -21 -293 7 -470 82 -135 58 -148 55 -315 -57
-177 -119 -416 -239 -592 -296 -168 -55 -227 -65 -410 -72 -178 -7 -221 -18
-321 -88 -304 -214 -755 -318 -1385 -318 -217 0 -538 -16 -718 -36 -182 -20
-302 -16 -355 12 -108 56 -98 191 31 407 96 162 602 641 1127 1066 174 141
213 184 177 196 -20 6 -173 -7 -366 -30 -184 -23 -398 -30 -482 -16 -141 24
-294 125 -343 225 -22 47 -27 136 -9 183 14 38 56 81 101 104 66 34 159 48
374 58 235 11 361 26 644 76 299 53 457 68 655 62 184 -5 239 -16 311 -63 58
-37 90 -92 104 -176 21 -122 -3 -209 -89 -323 -57 -75 -203 -234 -451 -490
-428 -441 -620 -661 -592 -679 41 -25 367 -49 682 -50 257 -1 282 1 378 23
l103 24 -7 61 c-4 34 -8 144 -8 246 -1 212 6 242 90 377 243 390 731 796 1124
935 175 61 389 101 710 133 308 30 344 30 386 4z m-9270 -29 c274 -23 466 -86
679 -225 227 -147 387 -344 430 -528 40 -173 49 -410 21 -560 -49 -261 -176
-487 -395 -708 -239 -241 -444 -364 -863 -520 -239 -89 -355 -120 -479 -126
-123 -7 -151 0 -259 63 -129 74 -91 130 -345 -506 -320 -801 -429 -1055 -565
-1318 -205 -394 -334 -481 -486 -328 -71 70 -78 100 -71 306 9 262 49 505 138
850 194 746 566 1676 906 2265 38 66 116 200 172 298 57 98 101 181 97 184 -3
3 -59 1 -124 -5 -178 -16 -221 -1 -268 95 -37 75 -37 138 -2 215 35 76 177
223 284 294 232 154 573 247 965 263 20 0 94 -4 165 -9z m4476 -600 c51 -14
132 -81 162 -133 36 -60 42 -120 21 -193 -36 -126 -156 -316 -339 -538 -107
-129 -203 -232 -615 -656 l-334 -345 449 -6 c247 -4 690 -12 984 -19 760 -18
999 -9 1200 46 40 11 100 18 157 19 83 0 94 -2 117 -24 46 -43 32 -95 -46
-177 -159 -168 -495 -306 -873 -358 -249 -34 -443 -46 -1275 -76 -643 -23
-909 -50 -1245 -126 -219 -50 -429 -84 -516 -84 -133 0 -207 51 -229 157 -20
95 -7 185 39 278 98 196 287 397 1007 1076 395 373 524 506 524 541 0 23 -25
23 -120 -2 -126 -33 -258 -43 -470 -37 -288 9 -393 36 -466 120 -71 82 -93
178 -58 254 19 39 89 84 169 108 81 25 277 53 485 70 557 44 716 60 940 94
141 22 277 26 332 11z m-2304 -205 c84 -71 122 -298 87 -525 -40 -261 -142
-542 -414 -1127 -156 -338 -239 -541 -251 -618 -12 -75 -19 -94 -42 -128 -52
-73 -176 -89 -286 -37 -76 36 -160 119 -197 194 -58 118 -60 559 -4 743 46
150 230 475 496 878 250 379 398 577 462 621 49 33 109 33 149 -1z m5632
-1847 c107 -73 105 -234 -4 -510 -26 -65 -48 -135 -49 -155 l-2 -38 48 -3 c58
-4 205 23 458 83 385 92 608 129 781 130 108 0 119 -2 140 -22 18 -19 20 -26
10 -47 -45 -100 -427 -278 -1352 -631 -140 -54 -275 -108 -300 -120 -94 -48
-129 -106 -215 -354 -65 -190 -143 -395 -215 -571 -29 -69 -109 -298 -180
-510 -70 -212 -146 -431 -169 -488 -107 -266 -181 -363 -252 -328 -30 14 -85
105 -105 171 -68 230 -14 826 127 1390 98 391 103 488 27 519 -18 7 -68 16
-112 20 -60 4 -91 13 -136 37 -105 56 -210 186 -210 260 0 45 67 165 105 189
65 40 93 44 419 49 l318 6 162 252 c186 293 262 401 346 498 151 173 273 232
360 173z m-4336 -769 c28 -32 29 -33 23 -123 -8 -103 -49 -316 -108 -549 -53
-212 -106 -458 -114 -532 -7 -69 6 -115 33 -115 10 0 63 15 119 34 55 19 119
37 142 41 88 15 116 -46 66 -144 -34 -68 -91 -121 -244 -230 -154 -110 -221
-179 -250 -256 -12 -30 -39 -156 -60 -278 -74 -414 -179 -853 -225 -944 -90
-176 -260 -303 -405 -303 -143 0 -240 91 -288 270 -28 107 -23 332 15 565 39
242 42 274 31 281 -5 3 -44 -5 -86 -16 -71 -20 -883 -289 -892 -296 -2 -2 -50
-191 -108 -421 -204 -821 -271 -999 -430 -1159 -51 -52 -93 -83 -148 -110
-132 -65 -229 -56 -323 30 -87 80 -115 194 -115 471 1 266 24 403 119 705 23
74 38 144 41 195 5 77 4 82 -22 114 -34 40 -51 47 -192 76 -177 37 -299 108
-357 208 -54 93 -39 165 51 249 94 86 249 149 513 207 200 44 305 78 338 110
19 17 40 59 62 126 64 185 445 926 631 1223 200 322 423 538 533 518 33 -6 64
-33 85 -73 60 -116 -104 -791 -343 -1414 -30 -80 -57 -161 -58 -180 l-3 -34
68 -3 c134 -6 697 129 792 189 61 39 92 91 160 271 165 433 383 881 536 1097
145 206 328 295 413 200z m2446 -464 c37 -19 59 -61 67 -124 7 -61 -10 -285
-47 -621 -43 -386 -52 -577 -44 -861 7 -255 5 -276 -35 -306 -31 -24 -123 -16
-187 17 -141 70 -240 183 -369 415 -45 82 -87 151 -94 153 -6 2 -102 -86 -213
-195 -268 -262 -379 -348 -562 -433 -174 -82 -361 -108 -486 -67 -109 36 -216
131 -240 215 -6 20 -14 89 -17 152 -9 203 39 466 131 716 24 66 58 156 74 200
l31 82 -78 60 c-157 121 -143 208 42 268 68 22 101 27 197 28 111 1 118 0 182
-32 77 -38 120 -82 160 -167 76 -164 87 -473 22 -675 -26 -82 -30 -115 -14
-125 19 -11 93 33 230 136 352 266 589 514 818 859 163 245 199 286 280 310
45 14 121 11 152 -5z"/>
<path d="M16330 11904 c-188 -63 -324 -151 -509 -329 -161 -155 -229 -253
-210 -302 17 -46 96 -25 356 92 311 141 368 186 409 324 14 47 41 114 60 149
19 34 34 69 34 77 0 23 -54 18 -140 -11z"/>
<path d="M7428 11700 c-20 -12 -26 -36 -38 -165 -15 -163 -87 -420 -280 -995
-140 -417 -169 -533 -135 -546 8 -3 63 17 122 44 59 28 155 71 212 97 323 144
493 256 695 453 103 101 192 216 236 305 43 87 65 214 51 286 -25 126 -147
313 -246 379 -87 58 -269 112 -463 137 -126 17 -132 17 -154 5z"/>
<path d="M1501 9409 c-21 -6 -65 -42 -115 -92 -130 -131 -184 -256 -206 -482
-13 -125 -8 -235 21 -449 91 -675 264 -973 670 -1148 216 -93 354 -90 461 10
27 25 54 54 59 65 22 40 28 132 19 256 -21 262 -121 1160 -140 1259 -67 340
-205 510 -460 567 -92 20 -263 28 -309 14z"/>
<path d="M19624 3405 c-14 -36 3 -45 81 -45 l75 0 0 -200 0 -200 30 0 30 0 0
200 0 199 78 3 c75 3 77 4 77 28 l0 25 -183 3 c-156 2 -183 0 -188 -13z"/>
<path d="M20060 3190 l0 -230 30 0 30 0 1 188 0 187 66 -187 c64 -183 66 -188
93 -188 31 0 20 -23 120 255 l39 110 0 -182 1 -183 30 0 30 0 0 230 0 230 -39
0 -39 0 -38 -107 c-21 -60 -52 -148 -70 -197 l-31 -89 -38 114 c-21 63 -51
151 -67 197 l-30 82 -44 0 -44 0 0 -230z"/>
</g>
</svg>
