<svg id="Capa_1" enable-background="new 0 0 512 512" height="512" viewBox="0 0 512 512" width="512" xmlns="http://www.w3.org/2000/svg"><g><g><path d="m375.381 198.113 8.229-8.261c38.732-38.885 38.669-102.093-.14-140.903l-42.292 32.755-36.334 45.872z" fill="#fecb2e"/><path d="m304.844 127.576 78.626-78.626c-38.809-38.809-102.018-38.872-140.903-.14l-8.261 8.229z" fill="#fef176"/><path d="m384.412 229.887 10.609-10.651c49.935-50.132 49.854-131.623-.18-181.658l-56.933 47.396-44.436 53.973zm-.852-43.289-42.901-42.901 60.492.588c-2.411 14.993-8.26 29.535-17.591 42.313zm-.151-116.369c9.731 13.264 15.725 28.432 17.982 44.05l-61.435-.597z" fill="#fd9e35"/><path d="m293.473 138.947 101.369-101.368c-50.034-50.034-131.526-50.115-181.658-.18l-10.651 10.609zm68.718-89.936-43.454 43.454-.596-61.436c15.618 2.257 30.786 8.25 44.05 17.982zm-74.057-17.742.587 60.49-42.899-42.899c12.778-9.331 27.319-15.18 42.312-17.591z" fill="#fecb2e"/></g><path d="m92.691 109.936-7.067 89.226 146.018 22.623-22.546-111.849z" fill="#fff5f5"/><g><path d="m322.555 109.936h-113.459v89.226h120.526z" fill="#ebebf0"/></g><g><path d="m194.258 393.583v88.319h-89.567v30.098h104.405l7.733-47.817-7.733-70.6z" fill="#fff5f5"/><path d="m313.923 481.902h-89.567v-88.319h-15.26v118.417h104.827z" fill="#ebebf0"/></g><g><path d="m85.624 199.162-5.648 71.314c-2.811 35.495 9.435 70.851 33.598 97.004s58.443 41.152 94.049 41.152c.492 0 .982-.014 1.473-.019l25.24-97.948-25.24-111.502h-123.472z" fill="#fecb2e"/><path d="m335.27 270.476-5.648-71.314h-120.526v209.45c35.077-.408 68.747-15.341 92.576-41.132 24.163-26.153 36.409-61.509 33.598-97.004z" fill="#fd9e35"/></g><g><g><path d="m183.2 200.912-35.724 16.16-38.712-16.16v-35.517h74.436z" fill="#fef176"/></g></g><g><g><path d="m268.986 350.167-48.117-48.116 48.117-48.115 48.115 48.115z" fill="#ffe42f"/></g></g><g><path d="m108.764 199.162h74.436v40.669h-74.436z" fill="#ffe42f"/></g></g></svg>