<?xml version="1.0" standalone="no"?>
<!DOCTYPE svg PUBLIC "-//W3C//DTD SVG 20010904//EN"
 "http://www.w3.org/TR/2001/REC-SVG-20010904/DTD/svg10.dtd">
<svg version="1.0" xmlns="http://www.w3.org/2000/svg"
 width="512.000000pt" height="512.000000pt" viewBox="0 0 512.000000 512.000000"
 preserveAspectRatio="xMidYMid meet">

<g transform="translate(0.000000,512.000000) scale(0.100000,-0.100000)"
fill="#000000" stroke="none">
<path d="M1767 4291 c-207 -179 -337 -400 -398 -679 -20 -91 -22 -130 -26
-638 -4 -391 -2 -548 6 -563 11 -20 19 -21 179 -21 l167 0 -41 25 c-76 45 -96
104 -69 206 43 171 259 420 530 614 50 35 150 101 223 147 141 88 167 108 137
108 -70 0 -462 -228 -668 -389 -54 -42 -100 -76 -104 -76 -3 0 -16 50 -29 110
-12 61 -32 151 -44 200 -30 125 -38 352 -16 455 21 100 82 219 156 305 63 74
68 90 49 155 -9 30 -8 43 5 68 9 18 15 32 14 32 -2 0 -34 -27 -71 -59z"/>
<path d="M3290 3444 c-211 -47 -573 -208 -838 -373 -308 -191 -554 -429 -540
-523 15 -104 404 -59 753 87 447 187 865 542 865 735 0 66 -22 84 -108 87 -37
1 -96 -5 -132 -13z m-640 -389 c29 -105 -10 -241 -90 -306 -65 -55 -118 -74
-200 -73 -77 0 -131 19 -190 63 l-24 19 49 46 c96 88 396 294 431 295 6 1 17
-19 24 -44z"/>
<path d="M3758 3420 c-15 -51 -130 -213 -215 -301 -287 -297 -780 -581 -1223
-704 l-85 -24 763 0 c601 -1 764 2 767 12 3 6 4 244 3 527 -2 283 -6 504 -10
490z"/>
<path d="M2745 2114 c-135 -35 -198 -82 -252 -191 -37 -74 -38 -80 -37 -177 0
-79 5 -113 23 -158 29 -75 95 -147 168 -183 55 -28 65 -30 178 -30 111 0 124
2 176 27 30 15 73 43 94 61 l39 34 -74 55 -74 56 -35 -28 c-68 -53 -159 -61
-226 -20 -101 62 -112 268 -20 349 30 26 89 51 120 51 31 0 90 -25 120 -51
l34 -30 65 47 c36 26 66 53 66 60 0 19 -80 81 -135 105 -48 21 -184 35 -230
23z"/>
<path d="M3405 2106 c-104 -26 -179 -87 -227 -184 -31 -63 -33 -72 -33 -177 0
-98 3 -116 27 -167 35 -76 98 -142 167 -175 51 -25 66 -28 166 -28 98 0 116 3
166 26 127 60 197 165 206 311 18 277 -203 461 -472 394z m149 -157 c81 -20
135 -99 136 -198 0 -113 -47 -188 -134 -210 -127 -32 -230 59 -230 204 0 104
49 179 134 203 47 14 45 14 94 1z"/>
<path d="M1240 2030 l0 -80 110 0 110 0 0 -285 0 -285 90 0 90 0 0 285 0 285
110 0 110 0 0 80 0 80 -310 0 -310 0 0 -80z"/>
<path d="M2031 2093 c-12 -24 -301 -703 -301 -708 0 -3 42 -5 94 -5 l93 0 20
53 20 52 144 0 144 0 19 -52 19 -53 98 0 c55 0 99 2 99 5 0 19 -286 703 -298
713 -9 7 -43 12 -79 12 -49 0 -64 -4 -72 -17z m155 -460 c-2 -2 -42 -3 -88 -1
l-85 3 45 123 45 124 44 -123 c24 -67 41 -124 39 -126z"/>
<path d="M1460 895 l0 -367 213 3 212 4 60 30 c74 37 105 88 105 173 0 88 -41
151 -115 176 l-36 13 26 17 c44 29 65 74 65 143 0 52 -4 66 -26 93 -56 66 -87
74 -306 78 l-198 4 0 -367z m303 214 c26 -7 41 -18 48 -36 22 -59 -14 -92
-110 -100 l-71 -6 0 77 0 76 48 0 c26 0 64 -5 85 -11z m81 -300 c29 -23 35
-63 12 -94 -15 -21 -101 -34 -178 -27 l-48 5 0 68 0 69 94 0 c79 0 97 -3 120
-21z"/>
<path d="M2120 895 l0 -365 275 0 275 0 0 80 0 80 -185 0 -185 0 0 70 0 70
155 0 155 0 0 69 0 69 -31 6 c-17 3 -87 6 -155 6 l-124 0 0 65 0 65 185 0 185
0 0 75 0 75 -275 0 -275 0 0 -365z"/>
<path d="M2760 895 l0 -365 250 0 250 0 0 80 0 80 -160 0 -160 0 0 285 0 285
-90 0 -90 0 0 -365z"/>
<path d="M3340 895 l0 -365 250 0 250 0 0 80 0 80 -160 0 -160 0 0 285 0 285
-90 0 -90 0 0 -365z"/>
</g>
</svg>
